<?xml version="1.0" encoding="UTF-8" standalone="no"?>
<!-- Created with Inkscape (http://www.inkscape.org/) -->

<svg
   width="90.193169mm"
   height="81.156975mm"
   viewBox="0 0 90.193169 81.156975"
   version="1.1"
   id="svg1"
   xml:space="preserve"
   inkscape:version="1.4.2 (ebf0e940d0, 2025-05-08)"
   sodipodi:docname="logo.svg"
   inkscape:export-filename="drawing.pdf"
   inkscape:export-xdpi="96"
   inkscape:export-ydpi="96"
   xmlns:inkscape="http://www.inkscape.org/namespaces/inkscape"
   xmlns:sodipodi="http://sodipodi.sourceforge.net/DTD/sodipodi-0.dtd"
   xmlns="http://www.w3.org/2000/svg"
   xmlns:svg="http://www.w3.org/2000/svg"><sodipodi:namedview
     id="namedview1"
     pagecolor="#ffffff"
     bordercolor="#000000"
     borderopacity="0.25"
     inkscape:showpageshadow="2"
     inkscape:pageopacity="0.0"
     inkscape:pagecheckerboard="0"
     inkscape:deskcolor="#d1d1d1"
     inkscape:document-units="mm"
     inkscape:zoom="0.53039952"
     inkscape:cx="166.85535"
     inkscape:cy="528.84663"
     inkscape:window-width="2528"
     inkscape:window-height="955"
     inkscape:window-x="16"
     inkscape:window-y="72"
     inkscape:window-maximized="0"
     inkscape:current-layer="layer1" /><defs
     id="defs1" /><g
     inkscape:label="Layer 1"
     inkscape:groupmode="layer"
     id="layer1"
     transform="translate(-5.8954194,-9.9767561)"><path
       style="fill:#ffffff;stroke-width:0.492963"
       d="m 79.09717,91.084031 c -1.28073,-0.21872 -2.50284,-1.057 -2.919399,-2.00249 -0.26399,-0.59922 -0.31383,-1.05034 -0.18528,-1.67706 0.31784,-1.54965 1.442209,-2.5815 2.806749,-2.57581 0.97769,0.004 2.24729,0.51451 2.99156,1.20272 0.869854,0.80435 1.107074,1.85353 0.696164,3.07911 -0.482664,1.43959 -1.851114,2.23629 -3.389794,1.97353 z m -57.336775,-1.31481 c -2.587919,-0.5676 -4.808986,-2.44524 -5.779069,-4.88547 -0.457968,-1.15202 -0.603919,-1.93447 -0.603426,-3.23504 3.69e-4,-0.987702 0.04166,-1.313022 0.26058,-2.053802 0.249307,-0.84354 0.73733,-1.87022 1.137883,-2.39381 0.40947,-0.53524 1.420227,-1.5099 1.926816,-1.85799 1.611907,-1.10759 3.434018,-1.66477 5.437401,-1.66268 1.194919,10e-4 2.070003,0.1939 2.917037,0.64224 1.242909,0.65786 1.986332,1.74007 1.986332,2.89151 0,0.57797 -0.03278,0.69186 -0.291923,1.01437 -0.160558,0.1998 -0.510103,0.47895 -0.776772,0.62033 -0.414784,0.21989 -0.604112,0.25669 -1.310169,0.25469 -1.020168,-0.003 -1.526623,-0.23776 -2.500044,-1.15935 -0.360573,-0.34137 -0.895902,-0.8473 -1.189619,-1.12429 -0.563442,-0.53134 -1.353091,-0.99033 -1.703765,-0.99033 -0.349925,0 -0.85469,0.20858 -1.132387,0.46792 -0.942546,0.88025 -0.961323,2.75952 -0.04806,4.81076 1.231082,2.765132 2.996694,4.202202 5.16599,4.204722 1.91534,0.002 3.346876,-0.88706 4.161439,-2.58513 0.394736,-0.82288 0.568037,-1.02209 0.893545,-1.02715 0.35519,-0.005 0.595683,0.33291 0.711145,1.00074 0.141766,0.81998 0.134465,1.25143 -0.0348,2.05602 -0.237179,1.12742 -0.663307,1.87339 -1.604132,2.80815 -1.207618,1.19985 -2.570878,1.88172 -4.415976,2.2088 -0.954269,0.16916 -2.423881,0.16678 -3.208014,-0.005 z m 46.37378,-2.01219 c -0.72616,-0.0994 -1.5475,-0.33936 -2.09648,-0.6126 -0.51613,-0.2569 -1.47252,-1.00277 -1.66479,-1.29833 -0.18364,-0.28231 -0.32569,-0.30589 -0.32569,-0.0541 0,0.26704 -0.37114,0.69779 -0.60122,0.69779 -0.2309,0 -4.73862,-0.94212 -5.18634,-1.08395 -0.21454,-0.068 -0.54761,-0.0524 -1.15361,0.0541 -1.57096,0.27594 -3.3924,0.15956 -4.14639,-0.26493 -0.32871,-0.18506 -0.63985,-0.64494 -0.80358,-1.18772 -0.0476,-0.15793 -0.13811,-0.10488 -0.63465,0.37217 -1.02121,0.98113 -2.2039,1.3824 -4.02915,1.36701 -0.97911,-0.008 -1.2904,-0.051 -1.94954,-0.26791 -1.873538,-0.61644 -3.241122,-2.07628 -3.777225,-4.032032 -0.167321,-0.6104 -0.326963,-3.65043 -0.336714,-6.41187 -0.0058,-1.65114 -0.04851,-1.79984 -0.778832,-2.714172 -0.440163,-0.551049 -0.494985,-0.669903 -0.469164,-1.017126 0.04983,-0.670021 0.177181,-0.715394 3.239219,-1.154097 1.492096,-0.213773 2.857346,-0.363018 3.033886,-0.331646 0.17654,0.03135 0.40593,0.142595 0.50976,0.247177 0.18227,0.183594 0.18879,0.371216 0.18933,5.446914 5e-4,6.332692 0.0565,6.855872 0.81256,7.617422 0.32088,0.32321 0.50248,0.42273 0.8737,0.4788 0.95385,0.14407 1.68418,-0.31117 2.15833,-1.34537 l 0.28145,-0.61388 v -4.009812 c 0,-3.10876 -0.0293,-4.09336 -0.13055,-4.38162 -0.0718,-0.20449 -0.3463,-0.642561 -0.60998,-0.973493 -0.51654,-0.648301 -0.62545,-0.91385 -0.53071,-1.294078 0.11303,-0.453595 0.40688,-0.537153 3.34868,-0.952208 2.39043,-0.337261 2.85954,-0.37904 3.10519,-0.276552 0.15915,0.0664 0.31914,0.193719 0.35554,0.282926 0.0364,0.08921 0.0991,2.956845 0.13932,6.372515 0.0525,4.45892 0.10611,6.293062 0.19001,6.503722 0.15184,0.3812 0.44284,0.68913 0.7869,0.83267 0.24626,0.10275 0.31206,0.0855 0.62214,-0.16328 0.19071,-0.15301 0.47583,-0.459 0.63359,-0.67999 0.26507,-0.37131 0.40469,-0.98017 1.83924,-8.020692 1.21785,-5.976996 1.53586,-7.69242 1.47569,-7.960124 -0.0877,-0.390146 -0.26316,-0.740692 -0.6848,-1.368141 -0.43809,-0.651919 -0.38921,-1.24208 0.1246,-1.504425 0.36412,-0.185907 6.02649,-1.527388 6.4471,-1.527388 0.45398,0 0.80287,0.3338 0.79965,0.765049 -0.001,0.197812 -0.38743,2.230088 -0.85769,4.516171 -0.47025,2.286083 -0.84173,4.183204 -0.82552,4.215823 0.0162,0.03263 0.26017,-0.02095 0.54213,-0.11906 0.35343,-0.12297 0.80183,-0.179355 1.443796,-0.181554 2.78528,-0.0096 5.51066,1.682939 6.68799,4.153319 0.881999,1.85067 0.977429,3.8877 0.288859,6.165502 -0.449259,1.48617 -1.529329,3.14132 -2.654149,4.06735 -0.6927,0.57027 -2.092,1.28305 -2.92355,1.48921 -0.77576,0.19232 -1.992046,0.26132 -2.758336,0.15648 z m 0.62214,-1.86423 c 1.012006,-0.47915 1.640036,-1.74391 2.034616,-4.09739 0.53159,-3.170642 0.404,-6.168662 -0.32365,-7.605312 -0.54301,-1.07212 -1.730606,-1.419453 -2.591616,-0.75797 -0.39229,0.30139 -0.76749,0.9177 -0.96359,1.58283 -0.17279,0.58607 -1.36193,6.4223 -1.45745,7.153012 -0.13886,1.06246 0.36536,2.65965 1.05023,3.32672 0.61916,0.60306 1.49243,0.75748 2.25146,0.39811 z m -35.97415,1.31156 c -0.500161,-0.18005 -0.516054,-0.86557 -0.04121,-1.77854 0.190935,-0.36712 0.370092,-0.83977 0.398132,-1.05033 0.05971,-0.44842 -2.404927,-15.088095 -2.656146,-15.777213 -0.10196,-0.279683 -0.3902,-0.667788 -0.809973,-1.090603 -0.967436,-0.974456 -0.970374,-1.276514 -0.01952,-2.007381 1.895267,-1.456781 4.489038,-3.271986 4.746671,-3.321869 0.407898,-0.07897 0.683666,0.01967 0.874275,0.312662 0.102542,0.15763 0.754644,3.737299 1.886532,10.355983 0.951405,5.563299 1.793573,10.237641 1.871491,10.387461 0.174931,0.33636 0.397263,0.5762 0.980021,1.05718 0.448675,0.37032 0.731661,0.7815 0.731661,1.0631 0,0.0803 -0.09831,0.25851 -0.218467,0.39589 -0.203899,0.23313 -0.462656,0.29218 -3.880878,0.88566 -2.014332,0.34973 -3.674682,0.6324 -3.689669,0.62815 -0.01499,-0.004 -0.09279,-0.0313 -0.172892,-0.0602 z M 83.029594,66.52337 C 81.32069,65.660196 79.82419,64.862724 79.70403,64.751211 c -0.25507,-0.236721 -0.2821,-0.620434 -0.0656,-0.931716 0.0841,-0.120874 0.44873,-0.36987 0.81038,-0.553312 0.36165,-0.183446 0.79223,-0.447689 0.95686,-0.587213 0.22327,-0.189233 1.180534,-2.035386 3.768584,-7.268025 l 3.46928,-7.014357 0.004,-0.684603 c 0.002,-0.37653 -0.0322,-0.914171 -0.0771,-1.194756 -0.09,-0.562742 0.0413,-1.044915 0.31321,-1.150024 0.0861,-0.03328 1.57156,-0.05758 3.30094,-0.05398 2.586817,0.0054 3.193967,0.03239 3.424207,0.152311 0.31018,0.161569 0.4798,0.417505 0.4798,0.723986 0,0.111045 -2.075437,4.413077 -4.612077,9.560079 -3.11233,6.315107 -4.61127,9.455644 -4.60958,9.657917 0.001,0.164862 0.0843,0.664165 0.18433,1.109572 0.18983,0.845437 0.17582,1.129014 -0.0699,1.41513 -0.31611,0.368047 -0.7179,0.224821 -3.95221,-1.408845 z m -71.541861,0.204969 c -0.698992,-0.107091 -1.6183246,-0.513741 -1.9418906,-0.858954 -0.316522,-0.337709 -0.644239,-0.983373 -0.711721,-1.402234 -0.171921,-1.067108 0.829253,-2.169325 2.1660366,-2.384632 0.753312,-0.121333 1.343749,0.148215 2.468154,1.126767 1.265447,1.1013 1.666917,1.313851 2.370602,1.255075 0.70441,-0.05884 1.263953,-0.43506 1.522434,-1.023634 0.232491,-0.529398 0.185098,-0.930138 -0.193104,-1.632793 -0.637061,-1.183586 -1.712106,-1.441726 -4.529905,-1.087714 -1.445299,0.181578 -2.9543636,0.185546 -3.6108036,0.0095 -1.212882,-0.325282 -2.086176,-1.09112 -2.728956,-2.39316 -0.315719,-0.639521 -0.360007,-0.822061 -0.395002,-1.628031 -0.04481,-1.031723 0.08591,-1.569507 0.619009,-2.546841 1.255001,-2.300809 4.9267596,-4.249188 8.0076676,-4.249188 2.204784,0 3.562553,0.869903 3.668885,2.350608 0.09162,1.275769 -0.896976,2.247361 -2.284368,2.245093 -0.727283,-9.85e-4 -1.24838,-0.303916 -2.357706,-1.369689 -0.95379,-0.91635 -1.249815,-1.098983 -1.7696,-1.091761 -0.799518,0.01109 -1.374067,0.643357 -1.363009,1.49988 0.0076,0.592504 0.394903,1.433011 0.83153,1.80477 0.816796,0.695453 1.654223,0.812186 4.161863,0.580144 1.900798,-0.17589 2.802847,-0.129714 3.770811,0.193039 0.955796,0.318691 1.890544,1.329271 2.35038,2.541054 0.277543,0.731385 0.292554,1.902035 0.03387,2.640608 -0.532268,1.519648 -1.853375,2.875539 -3.846263,3.947542 -2.151411,1.157271 -4.573444,1.729715 -6.238901,1.474557 z M 76.47556,63.372673 c -1.254969,-0.390284 -2.379559,-0.763107 -2.499089,-0.828489 -0.24223,-0.132513 -0.36237,-0.480915 -0.2926,-0.848547 0.0253,-0.133485 0.0261,-0.242696 0.002,-0.242696 -0.0243,0 -0.35128,0.09392 -0.7265,0.208721 -0.92276,0.28231 -2.50579,0.220438 -3.52494,-0.137769 -2.457626,-0.8638 -4.078926,-2.485709 -4.861336,-4.863173 -0.25076,-0.761958 -0.27322,-0.949595 -0.26931,-2.249406 0.004,-1.200288 0.0422,-1.560817 0.25079,-2.347212 0.72163,-2.719817 2.39317,-4.734252 4.73608,-5.707623 2.735216,-1.13637 6.042696,-0.479772 7.845385,1.557453 l 0.48907,0.552701 0.14899,-0.290198 c 0.18331,-0.357053 0.63347,-0.559222 1.05687,-0.474649 0.29668,0.05926 2.62792,1.113707 3.906434,1.766928 0.68063,0.347751 0.88365,0.64384 0.78919,1.150986 -0.0546,0.293047 -0.16093,0.415962 -0.62115,0.717848 -0.631584,0.414292 -1.025554,0.759065 -1.289004,1.128053 -0.2348,0.328837 -2.61613,8.215704 -2.61613,8.664488 0,0.187223 0.13464,0.732125 0.2992,1.210886 0.39262,1.142206 0.31858,1.559652 -0.29975,1.690174 -0.14901,0.03145 -1.12013,-0.221902 -2.52397,-0.658476 z m -3.774699,-3.102992 c 0.43992,-0.221735 0.82758,-0.677638 1.11446,-1.310652 0.33442,-0.737887 2.06602,-6.54788 2.19558,-7.366737 0.489889,-3.096298 -2.17037,-5.144872 -4.08068,-3.14239 -1.15141,1.206962 -1.99327,4.166758 -2.12677,7.477318 -0.10254,2.542952 0.41855,4.129821 1.47544,4.493125 0.44492,0.152937 0.91935,0.10267 1.42197,-0.150664 z m -44.82207,0.589461 c -1.304381,-0.179025 -2.60085,-0.670805 -3.680391,-1.396063 -0.829716,-0.557418 -1.281902,-0.993794 -1.906718,-1.840045 -1.632734,-2.211389 -1.960269,-5.296507 -0.825048,-7.771356 1.223973,-2.668337 3.942839,-4.623888 6.994628,-5.030914 4.931246,-0.657687 9.005268,2.195462 9.669615,6.771898 0.50092,3.450675 -1.372903,6.771449 -4.722107,8.368453 -1.643318,0.78359 -3.805485,1.134708 -5.529979,0.898027 z m 4.324492,-2.07126 c 0.566341,-0.287659 0.876001,-0.843919 0.943867,-1.695523 0.244944,-3.073613 -2.64253,-9.064444 -4.906692,-10.180227 -0.426285,-0.210071 -0.598669,-0.243396 -1.007084,-0.194676 -1.367377,0.163121 -1.842338,1.489696 -1.389048,3.879642 0.473728,2.497692 2.289771,6.119564 3.752235,7.483362 1.004694,0.936911 1.754358,1.140357 2.606722,0.707422 z m 25.969602,0.174968 c -1.7623,-0.227858 -3.29168,-0.44247 -3.39862,-0.476913 -0.29388,-0.09465 -0.45859,-0.426334 -0.38326,-0.771798 0.0365,-0.167233 0.31446,-0.569141 0.62991,-0.910686 0.90702,-0.982042 0.91348,-1.003654 1.35335,-4.525064 0.2149,-1.720369 0.3874,-3.341568 0.38333,-3.602671 -0.009,-0.556294 -0.10557,-0.83155 -0.60333,-1.713595 -0.55139,-0.977083 -0.41163,-1.28413 0.7711,-1.694014 4.62394,-1.602461 5.31584,-1.82183 5.55521,-1.761319 0.32178,0.08135 0.49694,0.227197 0.59964,0.499283 0.0519,0.137567 -0.17725,2.272281 -0.64092,5.969841 -0.39697,3.165639 -0.72191,5.922158 -0.72208,6.125599 -3.8e-4,0.455665 0.19595,0.943255 0.64344,1.598034 0.41991,0.614395 0.53161,1.222456 0.27669,1.506181 -0.24325,0.270745 -0.67258,0.247388 -4.46446,-0.242878 z m -11.74867,-0.315339 c -0.78557,-0.101713 -1.76251,-0.346425 -2.446428,-0.612803 -2.446863,-0.953022 -4.314876,-3.21423 -4.840956,-5.85993 -0.197603,-0.993751 -0.150954,-2.975197 0.09125,-3.875989 0.689179,-2.563139 2.850957,-4.726139 5.419344,-5.42241 2.23872,-0.606902 4.63215,-0.425861 6.53914,0.49462 0.95821,0.462522 2.06898,1.580282 2.37006,2.384981 0.69339,1.853227 0.0776,3.116589 -1.58452,3.25098 -1.47479,0.119238 -2.30417,-0.476666 -3.45372,-2.481474 -1.1461,-1.998799 -1.53793,-2.383212 -2.42923,-2.383212 -0.519,0 -0.87179,0.188879 -1.30506,0.698727 -0.632373,0.744143 -0.781632,1.299574 -0.784654,2.919886 -0.0035,1.728778 0.172567,2.606283 0.775224,3.869802 0.84472,1.77104 2.11938,2.752866 3.85967,2.972969 1.51332,0.191398 2.69013,-0.254946 3.8579,-1.463229 0.41736,-0.431836 0.83869,-0.782925 0.93956,-0.782925 0.10059,0 0.28,0.06851 0.39869,0.152247 0.18033,0.127224 0.2158,0.244402 0.2158,0.712958 0,2.290314 -1.82646,4.459363 -4.32079,5.131252 -1.04669,0.28194 -2.43647,0.405517 -3.30128,0.29355 z m 14.17608,-17.014016 c -0.67592,-0.09156 -1.67034,-0.537454 -2.15917,-0.96817 -0.73486,-0.647498 -1.04501,-1.342636 -1.04501,-2.342173 0,-0.659353 0.0428,-0.870302 0.27246,-1.34128 0.5577,-1.143926 1.63414,-1.766721 3.07737,-1.78047 1.24127,-0.01183 2.16513,0.301319 2.92264,0.990645 1.72537,1.570068 1.16117,4.372476 -1.04835,5.207241 -0.48462,0.183091 -1.51516,0.302576 -2.01994,0.234207 z M 17.16572,40.966994 c -1.39236,-0.319239 -2.249303,-1.256821 -2.249303,-2.460958 0,-1.091637 1.171843,-2.091417 2.448564,-2.089036 0.694299,0.0015 1.293743,0.305697 2.309159,1.172627 0.953564,0.814124 1.435716,1.070668 2.017872,1.073675 1.160204,0.006 2.045857,-1.015633 1.771178,-2.043107 -0.165656,-0.619665 -0.676011,-1.274222 -1.217201,-1.561126 -0.437574,-0.231974 -0.582584,-0.255962 -1.503785,-0.248745 -0.560731,0.0044 -1.61694,0.103419 -2.347132,0.220054 -2.837941,0.45331 -4.209335,0.193405 -5.386236,-1.020789 -0.300693,-0.310222 -0.657825,-0.830413 -0.877549,-1.278216 -0.36463,-0.743132 -0.370506,-0.773015 -0.370506,-1.88488 0,-1.262444 0.130063,-1.691278 0.832073,-2.743484 1.682858,-2.522336 6.02908,-4.44686 8.832942,-3.911265 2.319102,0.442996 3.302584,2.562547 1.803995,3.887864 -0.48797,0.43155 -0.953687,0.610205 -1.59067,0.610205 -0.706899,0 -1.217166,-0.264007 -2.149049,-1.111904 -1.363507,-1.240616 -1.892353,-1.452117 -2.633243,-1.053093 -0.729324,0.392794 -0.908551,1.346392 -0.435922,2.319413 0.28683,0.590511 0.675739,0.960455 1.311307,1.24737 0.548796,0.247739 1.946954,0.258549 3.592569,0.0278 3.318443,-0.465357 4.880644,0.115077 5.915655,2.197956 0.795544,1.600969 0.552252,3.231795 -0.72088,4.832206 -1.988615,2.499817 -6.70519,4.424726 -9.353838,3.817449 z m 59.79533,-0.199311 c -2.832049,-0.57794 -6.230659,-2.904121 -7.225039,-4.945167 -0.3086,-0.633428 -0.36063,-0.836085 -0.36063,-1.40462 0,-0.813464 0.33336,-1.582246 0.86204,-1.988034 0.31108,-0.238762 0.42993,-0.267763 1.0848,-0.264726 0.87607,0.0039 1.54882,0.300328 2.03883,0.897879 0.44231,0.539386 0.52289,0.963448 0.50255,2.644749 -0.0157,1.293931 0.007,1.549714 0.17191,1.924796 0.35354,0.805019 1.39015,1.301211 2.17401,1.040635 0.691519,-0.229873 1.237019,-1.128777 1.237019,-2.038453 0,-0.938262 -0.29571,-1.393568 -2.156549,-3.320547 -0.89826,-0.930188 -1.78298,-1.927103 -1.96605,-2.215359 -0.75953,-1.195939 -0.91412,-2.366702 -0.48322,-3.659622 0.47088,-1.412907 1.52349,-2.511426 2.79503,-2.916943 0.65835,-0.209958 2.083919,-0.281724 2.939649,-0.147993 2.26413,0.35384 5.004654,1.936612 6.308634,3.643508 0.86853,1.136911 1.21737,2.229619 1.01078,3.166156 -0.22713,1.029593 -0.9263,1.622505 -1.91648,1.625187 -1.02589,0.003 -1.921784,-0.601618 -2.216484,-1.495341 -0.13799,-0.418447 -0.15212,-0.721043 -0.093,-1.991602 0.082,-1.761663 0.0146,-2.08139 -0.51486,-2.443777 -0.60041,-0.410944 -1.40844,-0.301299 -1.92902,0.261754 -0.3369,0.364389 -0.70839,1.263682 -0.70943,1.717381 -0.001,0.536945 0.23983,1.238871 0.61321,1.785553 0.16429,0.240556 0.85316,1.017792 1.53082,1.727191 1.957474,2.049161 2.451954,2.929031 2.441014,4.343457 -0.0114,1.480576 -0.922204,3.032154 -2.146684,3.657137 -1.05475,0.538361 -2.56415,0.68836 -3.99286,0.396801 z M 28.70411,36.24788 c -0.600602,-0.218403 -0.629075,-0.7356 -0.09772,-1.775102 0.213266,-0.417215 0.41303,-0.95385 0.443924,-1.192513 0.06955,-0.537297 -1.218971,-6.993151 -1.489913,-7.464912 -0.09604,-0.167228 -0.391394,-0.444248 -0.656337,-0.615598 -1.109867,-0.717804 -1.257091,-0.854207 -1.289779,-1.194958 -0.02401,-0.250174 0.03258,-0.394198 0.24274,-0.617717 0.444549,-0.472838 4.373487,-3.499944 4.684296,-3.609077 0.554416,-0.194672 0.859984,0.171464 1.071086,1.283381 0.06638,0.349636 0.14116,0.669231 0.166183,0.710211 0.02504,0.04098 0.182776,-0.193599 0.350561,-0.521286 0.728235,-1.42226 2.300428,-2.384392 4.306592,-2.635494 2.160393,-0.270406 4.04017,0.574961 5.331443,2.397639 0.725642,1.024266 1.146214,2.091936 1.887749,4.792246 0.83231,3.030833 1.09443,3.920213 1.23947,4.205417 0.0821,0.161371 0.40616,0.571083 0.72022,0.910469 0.31406,0.339385 0.62517,0.750778 0.69138,0.914205 l 0.12037,0.297139 0.40631,-0.485347 c 0.51332,-0.613183 0.81225,-1.188072 0.86287,-1.659448 0.0217,-0.202519 0.10483,-2.216644 0.18462,-4.475837 0.0798,-2.259187 0.15623,-4.415684 0.16988,-4.792216 l 0.0248,-0.684602 -1.16192,-0.06369 c -1.10012,-0.0603 -1.17373,-0.0775 -1.38363,-0.323305 -0.17752,-0.207864 -0.22171,-0.376384 -0.22171,-0.845409 0,-0.498583 0.0371,-0.623185 0.24935,-0.836945 0.24497,-0.246754 0.27005,-0.250529 1.43217,-0.215605 l 1.18282,0.03555 0.0611,-1.271405 c 0.14008,-2.916901 1.10204,-4.760194 3.01172,-5.770977 1.05795,-0.559969 1.9634,-0.7619909 3.43269,-0.7658939 1.88288,-0.005 3.04675,0.4161279 4.18042,1.5126259 0.70892,0.685679 1.11166,1.449175 1.18312,2.242924 0.0726,0.806215 -0.0338,1.222475 -0.42328,1.656738 -0.47169,0.525885 -1.02856,0.723267 -1.86955,0.662658 -1.2246,-0.08825 -1.97756,-0.745828 -2.28696,-1.997248 -0.0912,-0.368742 -0.23572,-0.956505 -0.32122,-1.306142 -0.22027,-0.900746 -0.59572,-1.271405 -1.28785,-1.271405 -0.44126,0 -0.5451,0.04049 -0.8238,0.321209 -0.40984,0.412813 -0.58307,1.185281 -0.50263,2.241342 0.0639,0.838396 0.52823,2.817719 0.82347,3.509916 l 0.19148,0.448943 1.24808,0.06411 c 0.68643,0.03526 1.54636,0.06429 1.91094,0.06451 0.60773,3.64e-4 0.68725,0.02495 0.95601,0.295661 0.28255,0.284597 0.29072,0.317282 0.22617,0.904653 -0.0439,0.399188 -0.13173,0.676859 -0.25472,0.80499 -0.20872,0.217456 -0.26623,0.220749 -2.60985,0.149453 l -1.40789,-0.04283 -0.0607,1.413693 c -0.18797,4.380357 -0.30315,8.599483 -0.24341,8.915556 0.0497,0.262765 0.26779,0.581051 0.79314,1.157414 0.63889,0.700925 0.72463,0.839468 0.72463,1.170941 0,0.576157 -0.17189,0.68316 -1.09927,0.684299 -1.72978,0.002 -6.54435,-0.210585 -6.89407,-0.304568 -0.27666,-0.07435 -0.39568,-0.170335 -0.46709,-0.376645 -0.0905,-0.261532 -0.11028,-0.269754 -0.35695,-0.148485 -0.267,0.131266 -6.504569,1.416127 -6.872921,1.415742 -0.593383,-4.93e-4 -0.735697,-0.863681 -0.2885,-1.749602 0.528307,-1.046605 0.536357,-0.995239 -1.172558,-7.482671 -0.574849,-2.182253 -1.183615,-3.3641 -1.91222,-3.712352 -0.743369,-0.35531 -1.774052,-0.07747 -2.227815,0.600551 -0.38425,0.57415 -0.491109,1.043034 -0.427389,1.87534 0.08353,1.091091 1.480916,7.948754 1.713142,8.407254 0.107293,0.211841 0.446619,0.580474 0.754756,0.819951 0.743621,0.577922 0.897992,0.763626 0.960815,1.155833 0.101324,0.632536 -0.01297,0.675123 -3.896466,1.451821 -1.922508,0.384502 -3.561015,0.714565 -3.641117,0.73348 -0.08011,0.01893 -0.211185,0.01055 -0.291292,-0.01858 z m 31.459255,-1.65761 c -1.96148,-0.483217 -3.45044,-0.899544 -3.59257,-1.004511 -0.19068,-0.140815 -0.24003,-0.258974 -0.23007,-0.550843 0.0113,-0.330996 0.0973,-0.452368 0.78774,-1.111386 0.42629,-0.406892 0.82388,-0.809264 0.88352,-0.894157 0.0596,-0.08489 0.48413,-1.71327 0.9433,-3.618618 0.60118,-2.494631 0.82266,-3.578983 0.7913,-3.874145 -0.0286,-0.269518 -0.19989,-0.654681 -0.50005,-1.124704 -0.37952,-0.594298 -0.44783,-0.770457 -0.40511,-1.044801 0.071,-0.455722 0.30116,-0.67712 0.87782,-0.844273 0.6702,-0.194266 4.99097,-1.05113 5.32196,-1.055415 0.33679,-0.0043 0.65665,0.282523 0.65665,0.588947 0,0.195867 -0.35477,1.755169 -0.54733,2.405679 -0.029,0.09799 0.26797,-0.14918 0.65995,-0.549254 0.39199,-0.400074 0.90303,-0.824597 1.13566,-0.943384 1.21539,-0.620624 3.147846,-0.563421 4.160646,0.12316 1.11948,0.758891 1.56737,1.997179 1.22683,3.391832 -0.49743,2.037235 -1.79014,2.877895 -3.458576,2.249125 -0.89885,-0.33874 -1.22795,-0.829716 -1.3005,-1.9402 -0.0661,-1.011827 -0.18349,-1.357542 -0.52059,-1.533131 -0.39684,-0.206702 -0.61911,-0.180937 -0.96451,0.111804 -0.61963,0.525164 -0.77056,0.964739 -1.80917,5.268916 -0.63401,2.62749 -0.81267,3.51585 -0.76872,3.822473 0.0322,0.224761 0.25201,0.714654 0.50256,1.120176 0.53578,0.867197 0.63363,1.347412 0.33567,1.647523 -0.13224,0.133204 -0.31792,0.202944 -0.52102,0.195697 -0.17356,-0.0062 -1.82299,-0.382618 -3.66539,-0.83651 z"
       id="path1" /></g></svg>
